<svg width="32" height="34" viewBox="0 0 32 34" fill="none" xmlns="http://www.w3.org/2000/svg">
<path fill-rule="evenodd" clip-rule="evenodd" d="M4.65217 2.24066H0V0.740662H4.65217C6.00407 0.740662 7.15546 1.72328 7.36798 3.05838L7.99687 7.00935H29.7121C30.8545 7.00935 31.6906 8.08614 31.4075 9.19291L29.5067 16.626C29.0823 18.2859 27.5869 19.447 25.8736 19.447H9.97661L10.3874 22.0274C10.484 22.6343 11.0073 23.081 11.6218 23.081H28.203V24.581H11.6218C10.2699 24.581 9.11852 23.5983 8.90601 22.2632L5.88663 3.29417C5.79003 2.68731 5.26667 2.24066 4.65217 2.24066ZM9.73785 17.947H25.8736C26.9016 17.947 27.7988 17.2503 28.0535 16.2544L29.9543 8.82129C29.9947 8.66318 29.8753 8.50935 29.7121 8.50935H8.23563L9.73785 17.947Z" fill="black"/>
<path fill-rule="evenodd" clip-rule="evenodd" d="M13.5695 31.8146C14.3183 31.8146 15.0189 31.1687 15.0189 30.2544C15.0189 29.3401 14.3183 28.6942 13.5695 28.6942C12.8207 28.6942 12.1201 29.3401 12.1201 30.2544C12.1201 31.1687 12.8207 31.8146 13.5695 31.8146ZM13.5695 33.3146C15.1984 33.3146 16.5189 31.9445 16.5189 30.2544C16.5189 28.5643 15.1984 27.1942 13.5695 27.1942C11.9406 27.1942 10.6201 28.5643 10.6201 30.2544C10.6201 31.9445 11.9406 33.3146 13.5695 33.3146Z" fill="black"/>
<path fill-rule="evenodd" clip-rule="evenodd" d="M26.5466 31.8146C27.2954 31.8146 27.996 31.1687 27.996 30.2544C27.996 29.3401 27.2954 28.6942 26.5466 28.6942C25.7977 28.6942 25.0972 29.3401 25.0972 30.2544C25.0972 31.1687 25.7977 31.8146 26.5466 31.8146ZM26.5466 33.3146C28.1755 33.3146 29.496 31.9445 29.496 30.2544C29.496 28.5643 28.1755 27.1942 26.5466 27.1942C24.9177 27.1942 23.5972 28.5643 23.5972 30.2544C23.5972 31.9445 24.9177 33.3146 26.5466 33.3146Z" fill="black"/>
</svg>
