<svg width="26" height="25" viewBox="0 0 26 25" fill="none" xmlns="http://www.w3.org/2000/svg">
<path d="M25.9558 12.8307L25.9337 12.8418L22.2036 3.55878H23.9056C24.2108 3.55878 24.4582 3.31137 24.4582 3.00622C24.4582 2.70107 24.2108 2.45366 23.9056 2.45366H13.5056V0.856759C13.5056 0.551608 13.2582 0.304199 12.953 0.304199C12.6479 0.304199 12.4004 0.551608 12.4004 0.856759V2.44813H2.00595C1.70078 2.44813 1.45335 2.69554 1.45335 3.00069C1.45335 3.30584 1.70078 3.55325 2.00595 3.55325H3.77981L0.0442083 12.8307C0.0165781 12.8955 0.00158874 12.9649 0 13.0352C0 15.5727 2.0572 17.6297 4.5949 17.6297C7.13259 17.6297 9.1898 15.5727 9.1898 13.0352C9.18821 12.9649 9.17322 12.8955 9.14559 12.8307L5.41552 3.54773H12.4004V20.6329C9.76451 20.8318 7.70329 22.4342 7.70329 24.3737C7.70329 24.6789 7.95072 24.9263 8.2559 24.9263H17.6502C17.9553 24.9263 18.2028 24.6789 18.2028 24.3737C18.2028 22.4342 16.1416 20.8318 13.5056 20.6329V3.54773H20.5624L16.8544 12.8307C16.8268 12.8955 16.8118 12.9649 16.8102 13.0352C16.8102 15.5727 18.8674 17.6297 21.4051 17.6297C23.9428 17.6297 26 15.5727 26 13.0352C25.9984 12.9649 25.9834 12.8955 25.9558 12.8307ZM4.59214 16.5329C2.88058 16.5305 1.42295 15.2882 1.14942 13.5988H8.01275C7.74059 15.28 6.29533 16.5198 4.59214 16.5329ZM7.81382 12.4937H1.38151L4.60319 4.47603L7.81382 12.4937ZM16.9981 23.8211H8.90244C9.31137 22.6331 10.9968 21.7159 12.9475 21.7159C14.8982 21.7159 16.5892 22.6331 16.9981 23.8211ZM21.3802 4.48155L24.5909 12.4937H18.1586L21.3802 4.48155ZM21.3802 16.5329V16.5384C19.6752 16.5248 18.2294 15.2822 17.9596 13.5988H24.823C24.5494 15.2882 23.0918 16.5305 21.3802 16.5329Z" fill="black"/>
</svg>
