<svg width="28" height="28" viewBox="0 0 28 28" fill="none" xmlns="http://www.w3.org/2000/svg">
<path d="M20.1004 0.990967C17.7169 0.990967 15.4856 2.06426 14 3.86256C12.5144 2.0642 10.2832 0.990967 7.89957 0.990967C3.54375 0.990967 0 4.51527 0 8.84732C0 12.2395 2.03385 16.1631 6.04492 20.5091C9.13175 23.8536 12.4897 26.4431 13.4454 27.1572L13.9998 27.5715L14.5543 27.1572C15.5099 26.4432 18.868 23.8537 21.9549 20.5092C25.9661 16.1632 28 12.2396 28 8.84732C28 4.51527 24.4562 0.990967 20.1004 0.990967ZM20.5948 19.2675C18.0558 22.0184 15.3242 24.2422 13.9998 25.2671C12.6755 24.2422 9.944 22.0184 7.40498 19.2675C3.76837 15.3272 1.84615 11.724 1.84615 8.84732C1.84615 5.52773 4.56172 2.82702 7.89957 2.82702C10.0961 2.82702 12.1243 4.01764 13.1927 5.9343L14 7.3827L14.8073 5.9343C15.8756 4.0177 17.9038 2.82702 20.1004 2.82702C23.4383 2.82702 26.1538 5.52767 26.1538 8.84732C26.1538 11.7241 24.2316 15.3274 20.5948 19.2675Z" fill="black"/>
</svg>
