<svg width="17" height="26" viewBox="0 0 17 26" fill="none" xmlns="http://www.w3.org/2000/svg">
<path d="M8.5 0.990875C3.8131 0.990875 0 4.84141 0 9.57432C0 11.1734 0.438647 12.734 1.26881 14.0879L8.01616 25.0679C8.14541 25.2782 8.37311 25.406 8.61801 25.406C8.6199 25.406 8.62174 25.406 8.62363 25.406C8.87065 25.404 9.09883 25.2723 9.22571 25.0583L15.8011 13.9719C16.5854 12.6466 17 11.126 17 9.57432C17 4.84141 13.1869 0.990875 8.5 0.990875ZM14.5853 13.2374L8.60729 23.3167L2.47289 13.3342C1.78188 12.2072 1.40722 10.9071 1.40722 9.57432C1.40722 5.63023 4.59425 2.41191 8.5 2.41191C12.4058 2.41191 15.5881 5.63023 15.5881 9.57432C15.5881 10.8676 15.2381 12.1345 14.5853 13.2374Z" fill="black"/>
<path d="M8.49647 4.60825C5.89259 4.60825 3.77417 6.63669 3.77417 9.12997C3.77417 11.6073 5.85812 13.6517 8.49647 13.6517C11.1673 13.6517 13.2188 11.5801 13.2188 9.12997C13.2188 6.63669 11.1003 4.60825 8.49647 4.60825ZM8.49647 12.1545C6.75147 12.1545 5.33777 10.7963 5.33777 9.12997C5.33777 7.46778 6.76055 6.10544 8.49647 6.10544C10.2324 6.10544 11.6499 7.46778 11.6499 9.12997C11.6499 10.772 10.2691 12.1545 8.49647 12.1545Z" fill="black"/>
</svg>
