<svg width="190" height="44" viewBox="0 0 190 44" fill="none" xmlns="http://www.w3.org/2000/svg">
<path fill-rule="evenodd" clip-rule="evenodd" d="M95.9175 39.3425C95.9175 39.3425 97.0437 38.7966 99.019 38.0619C100.037 38.5488 102.267 39.5628 104.427 40.1869C107.351 41.0312 109.299 40.9012 112.028 40.9012C114.756 40.9012 118.653 40.4465 118.653 40.4465C118.653 40.4465 118.069 38.3032 118.004 36.7441C117.939 35.1848 117.939 34.9251 117.939 34.9251C117.939 34.9251 117.354 37.1338 117.484 38.3032C117.614 39.4722 117.614 39.8622 117.614 39.8622C117.614 39.8622 112.482 40.3819 108.845 39.9919C105.207 39.6022 102.998 39.2122 101.439 38.6928C100.58 38.4063 99.7608 38.1597 99.198 37.9957C101.954 36.981 106.267 35.6367 111.443 34.8604C120.537 33.4961 118.718 33.9508 118.718 33.9508C118.718 33.9508 118.913 33.5611 120.082 33.4314C121.252 33.3014 133.204 32.7167 136.907 32.9764C140.61 33.2361 150.808 33.7561 152.302 34.7304C153.796 35.7048 154.381 36.6791 153.926 39.0825C153.472 41.4862 152.562 43.8249 151.718 43.3049C150.873 42.7852 148.015 40.5769 145.287 40.1869C142.559 39.7972 139.57 39.8622 138.336 40.1869C137.102 40.5119 135.023 41.8109 134.049 41.4862C133.074 41.1615 131.126 39.3425 129.567 39.9922C128.008 40.6418 127.943 40.8365 127.228 41.7459C126.514 42.6555 125.539 43.6949 124.76 42.7206C123.98 41.7459 122.551 41.2912 121.317 41.2262C120.083 41.1615 118.978 41.5512 118.653 41.8759C118.328 42.2009 117.874 42.8502 117.874 42.8502C117.874 42.8502 115.86 42.3309 113.521 42.5906C111.183 42.8502 107.156 43.0452 104.427 42.5256C101.699 42.0059 95.9175 39.3425 95.9175 39.3425ZM120.472 40.1219C120.472 40.1219 123.071 39.6672 124.045 40.3815C125.02 41.0962 125.214 41.6809 126.968 40.2519C128.722 38.8225 129.826 37.7832 131.775 38.8225C133.724 39.8622 134.634 40.5115 136.517 39.5372C138.401 38.5628 142.494 37.5235 145.937 38.9525C149.379 40.3815 152.043 42.6552 152.562 41.2262C153.082 39.7969 153.342 38.2378 150.679 37.6535C148.015 37.0688 144.053 36.4191 140.415 37.0038C136.777 37.5885 136.128 39.2772 134.634 38.8225C133.139 38.3678 131.516 37.0038 129.697 37.7182C127.878 38.4328 126.319 40.6415 124.825 39.9269C123.331 39.2125 122.291 38.5628 121.382 39.0175C120.472 39.4722 120.472 40.1219 120.472 40.1219Z" fill="#1F1C21"/>
<path d="M1.52161 1.33434V10.9936H1.96659C2.00097 10.4399 2.0866 9.88023 2.2294 9.32092C2.36628 8.75567 2.54314 8.21357 2.76595 7.69394C2.98282 7.17993 3.23406 6.71217 3.51937 6.28941C3.79936 5.87289 4.10748 5.53573 4.4334 5.27295C4.67309 5.0736 4.9812 4.88488 5.36369 4.7024C5.74618 4.51961 6.20305 4.37119 6.73398 4.25714C7.27084 4.13715 7.88177 4.07998 8.578 4.07436H15.8403L0.562256 25.1057L0.63069 25.3113H22.7261V14.2132H22.2808C22.2464 14.8416 22.1833 15.4805 22.092 16.1258C21.9952 16.771 21.8639 17.3991 21.6927 18.0096C21.5155 18.6205 21.2927 19.1858 21.0189 19.711C20.7449 20.2306 20.4136 20.6815 20.0196 21.064C19.523 21.5264 18.9977 21.8633 18.4496 22.0804C17.8959 22.2973 17.3478 22.4341 16.7937 22.4913C16.2459 22.5541 15.7206 22.5766 15.2238 22.571H7.6874L22.8973 1.53964L22.7261 1.33434H1.52161ZM29.6115 21.4752C29.6172 21.7545 29.6059 22.0401 29.5718 22.337C29.5431 22.6338 29.4631 22.9306 29.3434 23.2162C29.2234 23.5018 29.0234 23.7699 28.7553 24.0099C28.4981 24.2208 28.2131 24.3867 27.8872 24.4952C27.5678 24.6095 27.2366 24.6892 26.8941 24.7348C26.5513 24.7804 26.226 24.8145 25.9119 24.832L25.3297 24.866V25.3113H49.3773V14.8981H48.932L48.8295 15.9605C48.7779 16.5254 48.6979 17.085 48.5954 17.6556C48.4867 18.2209 48.3154 18.7689 48.0701 19.2998C47.8301 19.8366 47.4764 20.3275 47.0139 20.79C46.8711 20.9384 46.6598 21.1155 46.3858 21.3149C46.1114 21.5149 45.7636 21.7092 45.3352 21.8973C44.9071 22.0917 44.393 22.2513 43.7937 22.3773C43.194 22.5026 42.4978 22.5654 41.704 22.571H33.8592V5.17045C33.8536 4.97048 33.8648 4.71958 33.8995 4.42274C33.928 4.12589 34.0077 3.8175 34.1276 3.49785C34.2536 3.17789 34.4473 2.89293 34.7158 2.63577C34.9614 2.41892 35.2467 2.25892 35.572 2.15081C35.9036 2.03645 36.2401 1.95647 36.5885 1.91054C36.931 1.86523 37.2566 1.83084 37.5591 1.81366L38.1416 1.7796V1.33434H25.3297V1.7796L25.9119 1.81366C26.2147 1.83084 26.5401 1.86523 26.8885 1.91054C27.2307 1.95647 27.5678 2.03645 27.8988 2.15081C28.2244 2.25892 28.51 2.41892 28.7553 2.63577C29.0234 2.89293 29.2234 3.17789 29.3434 3.49785C29.4631 3.8175 29.5431 4.12589 29.5718 4.42274C29.6059 4.71958 29.6172 4.97048 29.6115 5.17045V21.4752ZM62.0179 0.991577L54.55 19.0089C54.299 19.5966 54.0706 20.0991 53.865 20.5103C53.6594 20.9212 53.4825 21.264 53.3284 21.5377C53.1741 21.8061 53.0428 22.0232 52.9403 22.1941C52.8316 22.3773 52.6775 22.5997 52.4891 22.851C52.3006 23.1019 52.061 23.359 51.7697 23.6215C51.4841 23.8786 51.1419 24.1127 50.7363 24.3183C50.3366 24.5236 49.8741 24.672 49.3432 24.7636L48.6923 24.866V25.3113H60.9904V24.866L60.1339 24.7976C59.7973 24.7748 59.4373 24.7176 59.0548 24.6264C58.6724 24.5351 58.3127 24.3923 57.9699 24.2039C57.6277 24.0155 57.3421 23.7699 57.1196 23.4615C56.9365 23.205 56.8112 22.9025 56.7371 22.5485C56.6683 22.2001 56.6452 21.8401 56.6799 21.4696C56.708 21.1043 56.788 20.7615 56.914 20.4475L58.2158 17.2619H66.9853L68.5268 21.0299C68.618 21.2408 68.6924 21.4695 68.7608 21.7204C68.8293 21.9773 68.8634 22.2232 68.8693 22.4685C68.8634 22.9766 68.7665 23.3818 68.5724 23.6787C68.384 23.9811 68.1384 24.2039 67.8418 24.3524C67.6871 24.4436 67.499 24.5176 67.2822 24.5748C67.065 24.632 66.8028 24.6836 66.4828 24.7232C66.1631 24.7636 65.7691 24.7976 65.3069 24.832L64.7928 24.866V25.3113H78.2215V24.866L77.6731 24.832C77.2678 24.8088 76.8678 24.7404 76.4741 24.6264C76.0803 24.5176 75.7204 24.3748 75.3894 24.2039C75.0526 24.0327 74.7782 23.8384 74.5557 23.6334C74.356 23.4334 74.1616 23.1706 73.9791 22.851C73.7907 22.5257 73.5851 22.0973 73.3511 21.5608C73.1226 21.0299 72.837 20.3506 72.5004 19.5226L64.93 0.991577H62.0179ZM66.129 14.8641H59.072L62.5663 6.43783H62.6347L66.129 14.8641ZM88.5669 4.07436H91.1019C91.3015 4.06873 91.5531 4.07998 91.8556 4.1031C92.1581 4.12591 92.4834 4.17153 92.8374 4.25152C93.1915 4.32557 93.5452 4.44525 93.8993 4.60555C94.2589 4.77115 94.5902 4.99361 94.9043 5.27295C95.1899 5.53573 95.4467 5.88413 95.6808 6.32376C95.9089 6.76309 96.1148 7.24865 96.2858 7.77953C96.463 8.31603 96.6055 8.85879 96.7142 9.40654C96.8223 9.95461 96.8911 10.4739 96.9254 10.9595H97.3707V1.33434H75.5154V10.9595H75.9607C75.9947 10.4739 76.0688 9.95461 76.1776 9.40654C76.2804 8.85879 76.4229 8.31603 76.5997 7.77953C76.7713 7.24865 76.9766 6.76309 77.2109 6.32376C77.4394 5.88413 77.6963 5.53573 77.9816 5.27295C78.2956 4.99361 78.6269 4.77115 78.9862 4.60555C79.3406 4.44525 79.6946 4.32557 80.0487 4.25152C80.4024 4.17153 80.7281 4.12591 81.0305 4.1031C81.333 4.07998 81.5843 4.06873 81.7843 4.07436H84.3192V21.4752C84.3248 21.6748 84.3136 21.926 84.2789 22.2232C84.2505 22.52 84.1708 22.8282 84.0508 23.1478C83.9311 23.4615 83.7311 23.7527 83.4627 24.0099C83.2171 24.2208 82.9317 24.3867 82.6064 24.4952C82.2749 24.6095 81.9383 24.6836 81.5955 24.7348C81.2474 24.7804 80.9218 24.8088 80.6193 24.832L80.0368 24.866V25.3113H92.8487V24.866L92.2665 24.832C91.9637 24.8088 91.6384 24.7804 91.2959 24.7348C90.9478 24.6836 90.6106 24.6095 90.2797 24.4952C89.9541 24.3867 89.6691 24.2208 89.4231 24.0099C89.155 23.7527 88.9607 23.4615 88.835 23.1478C88.7154 22.8282 88.6353 22.52 88.6066 22.2232C88.5725 21.926 88.5613 21.6748 88.5669 21.4752V4.07436ZM132.21 1.33434H121.933L115.527 17.6047H115.424L109.018 1.33434H98.3301V1.7796L98.9126 1.81366C99.2151 1.83084 99.5404 1.86523 99.8888 1.91054C100.231 1.95647 100.568 2.03645 100.899 2.15081C101.225 2.25892 101.51 2.41892 101.756 2.63577C102.024 2.89293 102.224 3.17789 102.344 3.49785C102.463 3.8175 102.543 4.12589 102.572 4.42274C102.606 4.71958 102.618 4.97048 102.612 5.17045V20.79C102.618 21.0527 102.601 21.3721 102.567 21.7489C102.532 22.1257 102.452 22.5082 102.327 22.8909C102.207 23.2734 102.013 23.5987 101.756 23.873C101.533 24.0899 101.248 24.2667 100.911 24.4039C100.574 24.5407 100.225 24.6436 99.8716 24.712C99.5119 24.7804 99.1923 24.8204 98.9126 24.832L98.3301 24.866V25.3113H109.874V24.866L109.292 24.832C109.012 24.8204 108.693 24.7804 108.333 24.712C107.979 24.6436 107.631 24.5407 107.294 24.4039C106.957 24.2667 106.671 24.0899 106.449 23.873C106.243 23.6615 106.083 23.4162 105.969 23.1306C105.849 22.8453 105.764 22.5541 105.712 22.2513C105.661 21.9545 105.627 21.6748 105.61 21.418C105.598 21.1552 105.592 20.9499 105.592 20.79V4.65678H105.695L113.848 25.3113H115.424L123.577 4.65678H123.68V21.4752C123.685 21.6748 123.674 21.926 123.64 22.2232C123.611 22.52 123.537 22.8282 123.411 23.1478C123.291 23.4615 123.092 23.7527 122.823 24.0099C122.578 24.2208 122.292 24.3867 121.967 24.4952C121.636 24.6095 121.299 24.6836 120.956 24.7348C120.608 24.7804 120.283 24.8088 119.98 24.832L119.398 24.866V25.3113H132.21V24.866L131.627 24.832C131.325 24.8088 130.999 24.7804 130.656 24.7348C130.308 24.6836 129.972 24.6095 129.646 24.4952C129.315 24.3867 129.029 24.2208 128.784 24.0099C128.515 23.7527 128.322 23.4615 128.196 23.1478C128.076 22.8282 127.996 22.52 127.967 22.2232C127.939 21.926 127.922 21.6748 127.928 21.4752V5.17045C127.922 4.97048 127.939 4.71958 127.967 4.42274C127.996 4.12589 128.076 3.8175 128.196 3.49785C128.322 3.17789 128.515 2.89293 128.784 2.63577C129.029 2.41892 129.315 2.25892 129.646 2.15081C129.972 2.03645 130.308 1.95647 130.656 1.91054C130.999 1.86523 131.325 1.83084 131.627 1.81366L132.21 1.7796V1.33434ZM144.781 0.991577L137.313 19.0089C137.063 19.5966 136.834 20.0991 136.629 20.5103C136.423 20.9212 136.246 21.264 136.092 21.5377C135.938 21.8061 135.806 22.0232 135.704 22.1941C135.595 22.3773 135.441 22.5997 135.253 22.851C135.064 23.1019 134.825 23.359 134.533 23.6215C134.248 23.8786 133.905 24.1127 133.5 24.3183C133.1 24.5236 132.638 24.672 132.107 24.7636L131.456 24.866V25.3113H143.754V24.866L142.897 24.7976C142.561 24.7748 142.201 24.7176 141.818 24.6264C141.436 24.5351 141.076 24.3923 140.733 24.2039C140.391 24.0155 140.106 23.7699 139.883 23.4615C139.7 23.205 139.575 22.9025 139.501 22.5485C139.432 22.2001 139.409 21.8401 139.443 21.4696C139.472 21.1043 139.552 20.7615 139.678 20.4475L140.979 17.2619H149.749L151.29 21.0299C151.382 21.2408 151.456 21.4695 151.524 21.7204C151.593 21.9773 151.627 22.2232 151.633 22.4685C151.627 22.9766 151.53 23.3818 151.336 23.6787C151.148 23.9811 150.902 24.2039 150.605 24.3524C150.451 24.4436 150.263 24.5176 150.046 24.5748C149.829 24.632 149.566 24.6836 149.246 24.7232C148.927 24.7636 148.533 24.7976 148.07 24.832L147.556 24.866V25.3113H160.985V24.866L160.437 24.832C160.031 24.8088 159.631 24.7404 159.238 24.6264C158.844 24.5176 158.484 24.3748 158.153 24.2039C157.816 24.0327 157.542 23.8384 157.319 23.6334C157.12 23.4334 156.925 23.1706 156.743 22.851C156.554 22.5257 156.349 22.0973 156.115 21.5608C155.886 21.0299 155.601 20.3506 155.264 19.5226L147.694 0.991577H144.781ZM148.893 14.8641H141.836L145.33 6.43783H145.398L148.893 14.8641ZM159.752 1.33434V1.7796L160.403 1.91676C160.819 2.01363 161.248 2.19613 161.687 2.45891C162.127 2.72138 162.549 3.02383 162.954 3.37223C163.36 3.72062 163.72 4.06873 164.034 4.41682L171.947 13.2202L165.267 20.9956C165.153 21.1384 164.987 21.3092 164.782 21.5148C164.576 21.7204 164.348 21.9376 164.108 22.1601C163.863 22.3829 163.634 22.5885 163.412 22.7766C163.195 22.9653 163.012 23.1138 162.869 23.2219C162.332 23.6159 161.75 23.9583 161.122 24.2383C160.5 24.5176 159.883 24.7292 159.272 24.866V25.3113H172.735V24.866L171.913 24.7976C171.268 24.7404 170.771 24.6661 170.417 24.5807C170.069 24.4892 169.835 24.4264 169.72 24.3867C169.475 24.2952 169.246 24.1811 169.03 24.0271C168.813 23.8787 168.63 23.6899 168.493 23.4503C168.356 23.2162 168.287 22.925 168.282 22.571C168.287 22.3029 168.361 22.0232 168.499 21.7264C168.636 21.4296 168.79 21.1552 168.967 20.9043C169.144 20.6531 169.292 20.4531 169.412 20.3103L173.763 15.2409L178.456 20.4131C178.701 20.6759 178.93 20.9499 179.147 21.2296C179.363 21.5148 179.546 21.8005 179.683 22.0973C179.82 22.3885 179.889 22.6853 179.894 22.9822C179.889 23.319 179.797 23.5987 179.615 23.8215C179.437 24.0383 179.198 24.2152 178.901 24.3524C178.587 24.5064 178.222 24.6208 177.817 24.6951C177.411 24.7692 177.006 24.8145 176.606 24.832L175.613 24.866V25.3113H190V24.866C189.623 24.8204 189.212 24.7232 188.773 24.5748C188.327 24.4264 187.859 24.1924 187.362 23.873C186.74 23.439 186.135 22.9194 185.558 22.3029C184.982 21.6917 184.37 21.018 183.731 20.2762L176.434 12.1237L181.059 6.78059C181.39 6.39813 181.739 5.99258 182.104 5.55856C182.475 5.12455 182.869 4.70239 183.291 4.29119C183.709 3.8803 184.165 3.5094 184.656 3.1835C184.959 2.98977 185.29 2.80105 185.661 2.62451C186.032 2.44765 186.42 2.29923 186.825 2.16768C187.225 2.03645 187.619 1.93928 188.013 1.8821L188.698 1.7796V1.33434H174.927V1.7796L175.783 1.84805C176.412 1.89929 176.926 1.9905 177.325 2.11611C177.725 2.24204 178.033 2.39609 178.25 2.56733C178.502 2.75574 178.684 2.96134 178.787 3.18975C178.89 3.42379 178.941 3.68034 178.936 3.97155C178.93 4.31433 178.884 4.61677 178.787 4.89049C178.695 5.15921 178.581 5.39327 178.444 5.59887C178.307 5.80447 178.176 5.9813 178.045 6.12972L174.619 10.1374L169.755 4.72519C169.572 4.51959 169.441 4.33714 169.372 4.17716C169.304 4.01749 169.269 3.86907 169.275 3.7319C169.269 3.46911 169.332 3.21258 169.475 2.96135C169.612 2.70982 169.863 2.48735 170.234 2.29331C170.411 2.21301 170.617 2.13894 170.856 2.07645C171.096 2.01364 171.342 1.96209 171.587 1.92241C171.833 1.88804 172.055 1.85961 172.255 1.84805L173.043 1.7796V1.33434H159.752Z" fill="#1F1C21"/>
<path d="M0.492175 36.6007C0.639046 36.5085 0.801537 36.4244 0.979346 36.346C1.15715 36.2685 1.34496 36.2057 1.54246 36.1585C1.74151 36.11 1.94307 36.0863 2.14651 36.0841C2.43025 36.0841 2.67838 36.1332 2.88962 36.2291C3.10274 36.3266 3.2668 36.4675 3.38586 36.6535C3.50335 36.8413 3.56398 37.0697 3.56616 37.3397C3.56398 37.5431 3.5171 37.7325 3.42116 37.9087C3.3271 38.0844 3.1943 38.2369 3.02431 38.37C2.85619 38.5028 2.65868 38.6065 2.43181 38.6809C2.20744 38.755 1.96276 38.7925 1.70058 38.7943H1.2431V39.5687H1.71215C1.9162 39.5687 2.11932 39.5824 2.32244 39.6134C2.52743 39.6428 2.7215 39.6934 2.90525 39.7637C3.08712 39.8346 3.25116 39.9284 3.39397 40.0453C3.53678 40.1628 3.65023 40.3074 3.7321 40.4793C3.81616 40.6515 3.8574 40.8571 3.85928 41.0937C3.85928 41.3846 3.78897 41.643 3.65022 41.8677C3.50929 42.0946 3.30585 42.2705 3.03836 42.3996C2.76805 42.5268 2.44182 42.593 2.05245 42.5955C1.83215 42.593 1.61278 42.5696 1.39559 42.5246C1.17685 42.4796 0.971224 42.4208 0.779979 42.3489C0.585922 42.2764 0.416243 42.198 0.269372 42.114L0 42.9121C0.30843 43.0918 0.639055 43.2246 0.993109 43.307C1.34654 43.3886 1.70464 43.4302 2.06463 43.428C2.35587 43.428 2.6393 43.4008 2.9168 43.3455C3.19648 43.2908 3.45616 43.2067 3.69928 43.0918C3.94333 42.9764 4.15646 42.828 4.34239 42.6477C4.5277 42.4658 4.67269 42.2512 4.778 41.999C4.88362 41.7468 4.93645 41.4571 4.93832 41.129C4.93082 40.7471 4.84426 40.4171 4.67614 40.1359C4.50802 39.8543 4.28115 39.6275 3.99241 39.4593C3.70273 39.2912 3.37461 39.1875 3.00305 39.1459V39.1231C3.31179 39.0503 3.58741 38.9231 3.83146 38.7434C4.07646 38.5634 4.27209 38.3406 4.41427 38.0744C4.55708 37.8091 4.62958 37.5138 4.63364 37.1872C4.62958 36.7785 4.53176 36.43 4.33645 36.1429C4.14083 35.8557 3.87085 35.6344 3.52304 35.4819C3.17461 35.3297 2.77212 35.2532 2.31056 35.2516C1.8787 35.2532 1.48933 35.3104 1.1434 35.4173C0.799663 35.5273 0.492171 35.6694 0.222803 35.8497L0.492175 36.6007ZM6.85046 35.3919V38.724C6.85265 39.0425 6.84639 39.3712 6.83076 39.7075C6.81701 40.0437 6.78764 40.3684 6.74264 40.6828C6.69608 40.9977 6.62734 41.2815 6.53359 41.5355C6.43984 41.7893 6.31484 41.993 6.15828 42.1493C6.06047 42.2452 5.93954 42.3327 5.79079 42.4133C5.64174 42.4918 5.48737 42.5443 5.32518 42.5718L5.45424 43.3927C5.60892 43.3911 5.75923 43.3733 5.91016 43.3364C6.05859 43.3008 6.19922 43.2539 6.33047 43.1971C6.46109 43.1405 6.57452 43.0818 6.67421 43.0174C6.89358 42.8649 7.07545 42.6714 7.2217 42.4386C7.36669 42.2039 7.482 41.9402 7.56762 41.6471C7.65418 41.3518 7.71856 41.0384 7.75949 40.7062C7.80262 40.3718 7.8298 40.0321 7.84168 39.6821C7.85543 39.3318 7.86136 38.9859 7.85918 38.6415V36.2488H10.4638V43.2989H11.496V35.3919H6.85046ZM17.3499 40.8121L18.1945 43.2989H19.2854L16.5874 35.3919H15.3674L12.6691 43.2989H13.725L14.5459 40.8121H17.3499ZM14.7571 40.0143L15.5315 37.7269C15.6134 37.4844 15.6859 37.2438 15.7487 37.0013C15.813 36.7606 15.8737 36.5241 15.9305 36.2954H15.9537C16.0105 36.5222 16.0733 36.7572 16.1377 36.9957C16.2024 37.2338 16.2783 37.4803 16.364 37.7381L17.1505 40.0143H14.7571ZM21.9479 43.2989H22.9801V36.2604H25.3972V35.3919H19.5436V36.2604H21.9479V43.2989ZM29.4671 35.2516C28.9374 35.2532 28.4487 35.3513 28.0049 35.5469C27.559 35.7422 27.174 36.0219 26.8459 36.3853C26.5172 36.751 26.2631 37.1872 26.0828 37.6956C25.9009 38.2059 25.8094 38.7747 25.8072 39.4047C25.8094 40.0043 25.8953 40.5496 26.0675 41.0424C26.2397 41.5337 26.4818 41.9574 26.7968 42.314C27.1118 42.6696 27.4871 42.943 27.9209 43.1364C28.3549 43.3283 28.834 43.4261 29.3618 43.428C29.7668 43.428 30.1536 43.3692 30.5192 43.2539C30.8849 43.1405 31.2214 42.9683 31.5261 42.7418C31.8314 42.5149 32.0973 42.2355 32.3217 41.8993C32.547 41.5649 32.7233 41.1777 32.8457 40.7374C32.9689 40.2975 33.0317 39.8053 33.0335 39.2634C33.0317 38.6709 32.9476 38.1316 32.7814 37.6428C32.6154 37.1522 32.3764 36.7294 32.0639 36.3738C31.7529 36.0163 31.3777 35.7404 30.9398 35.5469C30.5036 35.3529 30.0114 35.2532 29.4671 35.2516ZM29.4321 36.0841C29.7724 36.0863 30.0774 36.1469 30.3477 36.2685C30.6192 36.3875 30.8536 36.5535 31.0552 36.7628C31.2567 36.9738 31.4248 37.2166 31.5576 37.49C31.6908 37.7638 31.7904 38.0572 31.8567 38.3659C31.9211 38.6768 31.9545 38.9919 31.9545 39.3106C31.9545 39.7621 31.8979 40.1865 31.7864 40.5815C31.6745 40.9765 31.5105 41.324 31.2958 41.6252C31.0786 41.9265 30.8145 42.163 30.4996 42.3352C30.1852 42.5049 29.8252 42.5915 29.4205 42.5955C29.0958 42.593 28.8012 42.5368 28.5349 42.4249C28.269 42.3115 28.0343 42.1549 27.8293 41.954C27.6237 41.7524 27.4515 41.5159 27.3127 41.248C27.1721 40.9781 27.0662 40.6849 26.9943 40.3684C26.924 40.0518 26.8865 39.7228 26.8865 39.3809C26.8865 39.035 26.9199 38.6987 26.9887 38.3756C27.0546 38.0531 27.1568 37.7522 27.2931 37.4747C27.4284 37.1988 27.5984 36.9563 27.8015 36.7475C28.0049 36.54 28.2437 36.3778 28.5155 36.2619C28.7871 36.145 29.0918 36.0863 29.4321 36.0841ZM33.491 35.3919L36.1188 40.7415C36.1656 40.8337 36.195 40.9137 36.2028 40.9862C36.2103 41.0581 36.195 41.1365 36.1541 41.2227C36.0897 41.3655 36.0113 41.5158 35.9175 41.6702C35.8235 41.8268 35.7141 41.9712 35.5869 42.1083C35.4597 42.2452 35.3151 42.3546 35.1529 42.4405C34.9904 42.5246 34.8066 42.5696 34.6054 42.5718C34.5179 42.5718 34.4435 42.5696 34.3807 42.5636C34.3179 42.558 34.2651 42.548 34.2182 42.5368L34.1245 43.3692C34.1891 43.3927 34.2673 43.4105 34.3588 43.4221C34.4526 43.4336 34.566 43.4396 34.6991 43.4396C35.0491 43.4396 35.3722 43.3577 35.6653 43.1952C35.9582 43.0311 36.2322 42.7889 36.4822 42.4658C36.6232 42.2821 36.7603 42.0749 36.891 41.8405C37.0241 41.6055 37.1513 41.3574 37.2744 41.0937C37.3978 40.8296 37.5169 40.5596 37.6303 40.2859C37.7453 40.0103 37.855 39.7409 37.9609 39.4747L39.6265 35.3919H38.5468L37.3038 38.7475C37.21 39.0268 37.1238 39.2846 37.0453 39.5196C36.9675 39.7521 36.8928 39.9693 36.8225 40.1668H36.7875C36.6994 39.9384 36.6094 39.709 36.5156 39.4787C36.4219 39.2497 36.3238 39.0172 36.2244 38.7828L34.6526 35.3919H33.491ZM45.7848 42.2315C45.646 42.2977 45.4876 42.3565 45.3079 42.4055C45.1279 42.4543 44.9367 42.4918 44.7329 42.5186C44.5279 42.5465 44.3204 42.5596 44.1076 42.5596C43.468 42.5561 42.9227 42.4268 42.473 42.1686C42.0233 41.9108 41.679 41.5452 41.4405 41.0702C41.2024 40.5968 41.0824 40.0337 41.0808 39.3809C41.0824 38.8603 41.1568 38.3994 41.3018 37.9944C41.448 37.5919 41.6577 37.2494 41.9271 36.9719C42.1989 36.6922 42.5236 36.4813 42.9014 36.3363C43.2802 36.1919 43.7005 36.1197 44.1664 36.1197C44.4967 36.1216 44.7954 36.1525 45.0632 36.2138C45.3317 36.2741 45.5601 36.3525 45.7495 36.4478L46.0076 35.6147C45.9176 35.566 45.787 35.5154 45.6167 35.4607C45.4467 35.4076 45.2379 35.361 44.9914 35.3235C44.7426 35.2845 44.4555 35.2654 44.1305 35.2632C43.5152 35.2654 42.9561 35.3651 42.4511 35.5626C41.9468 35.76 41.5127 36.0416 41.1471 36.4072C40.7815 36.7728 40.4999 37.2103 40.3024 37.7169C40.1031 38.2253 40.0037 38.7925 40.0012 39.4159C40.0052 40.0671 40.1031 40.6418 40.2965 41.1421C40.4902 41.6409 40.7618 42.0593 41.1143 42.398C41.4643 42.7377 41.8749 42.9939 42.3474 43.1677C42.8189 43.3399 43.3349 43.428 43.8964 43.428C44.2186 43.4261 44.5142 43.4083 44.7842 43.3733C45.0536 43.3364 45.2926 43.2892 45.4957 43.2327C45.6988 43.1758 45.8614 43.1171 45.9845 43.0524L45.7848 42.2315ZM48.7756 43.2989H49.8081V36.2604H52.2253V35.3919H46.3713V36.2604H48.7756V43.2989ZM56.2951 35.2516C55.7655 35.2532 55.2767 35.3513 54.8327 35.5469C54.3871 35.7422 54.0021 36.0219 53.6737 36.3853C53.3449 36.751 53.0912 37.1872 52.9109 37.6956C52.729 38.2059 52.6374 38.7747 52.6352 39.4047C52.6374 40.0043 52.723 40.5496 52.8952 41.0424C53.0674 41.5337 53.3099 41.9574 53.6249 42.314C53.9399 42.6696 54.3152 42.943 54.7486 43.1364C55.1827 43.3283 55.6617 43.4261 56.1898 43.428C56.5945 43.428 56.9814 43.3692 57.347 43.2539C57.7126 43.1405 58.0495 42.9683 58.3542 42.7418C58.6592 42.5149 58.9254 42.2355 59.1498 41.8993C59.3751 41.5649 59.551 41.1777 59.6738 40.7374C59.7969 40.2975 59.8597 39.8053 59.8613 39.2634C59.8597 38.6709 59.7757 38.1316 59.6091 37.6428C59.4435 37.1522 59.2045 36.7294 58.892 36.3738C58.581 36.0163 58.2054 35.7404 57.7679 35.5469C57.3317 35.3529 56.8392 35.2532 56.2951 35.2516ZM56.2601 36.0841C56.6004 36.0863 56.9054 36.1469 57.1754 36.2685C57.4473 36.3875 57.6817 36.5535 57.8832 36.7628C58.0848 36.9738 58.2529 37.2166 58.3857 37.49C58.5188 37.7638 58.6185 38.0572 58.6845 38.3659C58.7491 38.6768 58.7826 38.9919 58.7826 39.3106C58.7826 39.7621 58.726 40.1865 58.6145 40.5815C58.5026 40.9765 58.3385 41.324 58.1239 41.6252C57.9067 41.9265 57.6426 42.163 57.3276 42.3352C57.0132 42.5049 56.6533 42.5915 56.2486 42.5955C55.9239 42.593 55.6289 42.5368 55.363 42.4249C55.097 42.3115 54.8621 42.1549 54.6571 41.954C54.4518 41.7524 54.2796 41.5159 54.1408 41.248C54.0002 40.9781 53.8943 40.6849 53.8224 40.3684C53.7521 40.0518 53.7146 39.7228 53.7146 39.3809C53.7146 39.035 53.748 38.6987 53.8165 38.3756C53.8827 38.0531 53.9846 37.7522 54.1212 37.4747C54.2565 37.1988 54.4261 36.9563 54.6296 36.7475C54.8327 36.54 55.0718 36.3778 55.3436 36.2619C55.6152 36.145 55.9198 36.0863 56.2601 36.0841ZM61.1869 43.2752C61.3572 43.2989 61.5759 43.3202 61.8419 43.3399C62.1081 43.3577 62.4191 43.3674 62.7706 43.3692C63.4162 43.3692 63.9637 43.3105 64.4134 43.1896C64.8646 43.068 65.2246 42.8827 65.4924 42.6305C65.6996 42.4427 65.8662 42.2177 65.9868 41.954C66.1083 41.6896 66.1705 41.3868 66.173 41.0465C66.1705 40.7534 66.1199 40.4934 66.0243 40.2681C65.9265 40.0437 65.7993 39.8478 65.6393 39.6878C65.4787 39.5253 65.3046 39.3946 65.1131 39.2928C64.9234 39.1909 64.7318 39.119 64.5424 39.0759V39.0406C64.818 38.9409 65.0543 38.8041 65.254 38.6319C65.453 38.4597 65.6074 38.2606 65.7152 38.0337C65.8227 37.8069 65.8774 37.5644 65.8793 37.3041C65.8774 36.9932 65.8171 36.7197 65.6996 36.4872C65.5805 36.2544 65.4181 36.061 65.2109 35.9085C65.0524 35.7754 64.8706 35.666 64.6656 35.5819C64.4599 35.4979 64.2234 35.4354 63.9596 35.3944C63.6937 35.3529 63.3909 35.3332 63.0522 35.3332C62.8156 35.3332 62.5831 35.3413 62.3544 35.3551C62.1253 35.3707 61.9122 35.3904 61.7131 35.4173C61.5116 35.4432 61.3375 35.4745 61.1869 35.5095V43.2752ZM62.2075 36.19C62.2878 36.1704 62.3994 36.1551 62.5437 36.141C62.6884 36.1272 62.8784 36.1197 63.1109 36.1197C63.4572 36.1175 63.76 36.1626 64.0162 36.2507C64.2746 36.3385 64.4756 36.4772 64.6184 36.6691C64.7612 36.8585 64.8337 37.105 64.8352 37.41C64.8352 37.6663 64.7668 37.895 64.6321 38.0962C64.4974 38.2956 64.3034 38.454 64.0496 38.569C63.7975 38.6865 63.4921 38.7453 63.1347 38.7475H62.2075V36.19ZM62.2075 39.51H63.0522C63.3337 39.51 63.5959 39.5393 63.8422 39.5981C64.0868 39.6568 64.3034 39.7484 64.4912 39.8715C64.6787 39.9946 64.8256 40.1531 64.9315 40.3465C65.0368 40.538 65.0915 40.769 65.0934 41.0349C65.0915 41.3199 65.0346 41.563 64.9252 41.7599C64.8159 41.9574 64.6656 42.1165 64.4756 42.2355C64.2837 42.3546 64.069 42.4405 63.8265 42.4933C63.5844 42.5464 63.3297 42.5737 63.0637 42.5718C62.8825 42.5718 62.72 42.5677 62.579 42.5621C62.4362 42.5539 62.3131 42.5424 62.2075 42.5246V39.51ZM72.8591 42.2315C72.7204 42.2977 72.5619 42.3565 72.3826 42.4055C72.2023 42.4543 72.011 42.4918 71.8073 42.5186C71.6023 42.5465 71.3951 42.5596 71.182 42.5596C70.5423 42.5561 69.997 42.4268 69.5473 42.1686C69.0976 41.9108 68.7533 41.5452 68.5152 41.0702C68.2767 40.5968 68.157 40.0337 68.1552 39.3809C68.157 38.8603 68.2311 38.3994 68.3764 37.9944C68.5227 37.5919 68.732 37.2494 69.0017 36.9719C69.2733 36.6922 69.5979 36.4813 69.9757 36.3363C70.3545 36.1919 70.7748 36.1197 71.2407 36.1197C71.5713 36.1216 71.8701 36.1525 72.1379 36.2138C72.406 36.2741 72.6347 36.3525 72.8241 36.4478L73.0819 35.6147C72.9922 35.566 72.8616 35.5154 72.691 35.4607C72.5213 35.4076 72.3122 35.361 72.0657 35.3235C71.8169 35.2845 71.5298 35.2654 71.2051 35.2632C70.5895 35.2654 70.0304 35.3651 69.5254 35.5626C69.0211 35.76 68.587 36.0416 68.2214 36.4072C67.8558 36.7728 67.5742 37.2103 67.3767 37.7169C67.1777 38.2253 67.078 38.7925 67.0758 39.4159C67.0796 40.0671 67.1777 40.6418 67.3711 41.1421C67.5646 41.6409 67.8361 42.0593 68.1886 42.398C68.5386 42.7377 68.9492 42.9939 69.422 43.1677C69.8936 43.3399 70.4092 43.428 70.9707 43.428C71.2932 43.4261 71.5885 43.4083 71.8585 43.3733C72.1279 43.3364 72.3669 43.2892 72.5701 43.2327C72.7735 43.1758 72.9357 43.1171 73.0588 43.0524L72.8591 42.2315ZM74.3488 35.3919V43.2989H75.3694V39.674H75.6981C76.0303 39.674 76.3159 39.7172 76.5543 39.8012C76.7909 39.8872 76.9943 40.0062 77.1606 40.1627C77.3265 40.3171 77.4674 40.5031 77.5827 40.7184C77.7002 40.9331 77.8021 41.1715 77.8918 41.4333C77.9662 41.643 78.0405 41.8561 78.1146 42.073C78.189 42.2921 78.2671 42.5049 78.349 42.7146C78.4315 42.9217 78.5211 43.1171 78.6189 43.2989H79.7102C79.5983 43.0646 79.4949 42.8258 79.4008 42.5855C79.3071 42.3427 79.2174 42.0968 79.1274 41.8424C79.0377 41.5883 78.9415 41.328 78.8418 41.0581C78.744 40.7902 78.6346 40.5421 78.5115 40.3137C78.3905 40.0846 78.2452 39.8812 78.0755 39.7034C77.9074 39.5253 77.7058 39.3769 77.4693 39.2594C77.2327 39.1419 76.9512 39.0619 76.6246 39.0172L79.6161 35.3919H78.3961L75.6862 38.8997H75.3694V35.3919H74.3488ZM80.7067 35.3919V43.2989H81.7976L84.2729 39.3572C84.5469 38.9216 84.8091 38.4794 85.0629 38.0319C85.3175 37.5841 85.5441 37.1425 85.7394 36.706L85.7744 36.7182C85.7475 37.0485 85.7279 37.3785 85.7141 37.7088C85.7004 38.0416 85.6929 38.3894 85.6869 38.7509C85.6829 39.115 85.6807 39.5075 85.6807 39.9318V43.2989H86.6428V35.3919H85.6225L83.0651 39.4628C82.7776 39.9303 82.5117 40.3815 82.267 40.8156C82.0229 41.2481 81.8042 41.6702 81.6101 42.079L81.5748 42.0674C81.5986 41.7174 81.6164 41.3634 81.6295 41.0074C81.6436 40.6515 81.6533 40.2859 81.6614 39.909C81.667 39.5312 81.6689 39.1362 81.6689 38.724V35.3919H80.7067ZM92.5086 38.7475H89.4468V36.2488H92.6964V35.3919H88.4143V43.2989H92.8723V42.4427H89.4468V39.5921H92.5086V38.7475ZM158.84 35.3919V43.2989H159.872V39.5921H163.697V43.2989H164.729V35.3919H163.697V38.7003H159.872V35.3919H158.84ZM169.691 35.2516C169.161 35.2532 168.672 35.3513 168.228 35.5469C167.783 35.7422 167.397 36.0219 167.069 36.3853C166.74 36.751 166.486 37.1872 166.306 37.6956C166.124 38.2059 166.033 38.7747 166.031 39.4047C166.033 40.0043 166.119 40.5496 166.291 41.0424C166.463 41.5337 166.705 41.9574 167.02 42.314C167.335 42.6696 167.71 42.943 168.144 43.1364C168.578 43.3283 169.057 43.4261 169.585 43.428C169.99 43.428 170.377 43.3692 170.743 43.2539C171.108 43.1405 171.445 42.9683 171.749 42.7418C172.055 42.5149 172.321 42.2355 172.545 41.8993C172.77 41.5649 172.947 41.1777 173.069 40.7374C173.192 40.2975 173.255 39.8053 173.257 39.2634C173.255 38.6709 173.171 38.1316 173.005 37.6428C172.839 37.1522 172.6 36.7294 172.287 36.3738C171.976 36.0163 171.601 35.7404 171.163 35.5469C170.727 35.3529 170.235 35.2532 169.691 35.2516ZM169.655 36.0841C169.996 36.0863 170.301 36.1469 170.571 36.2685C170.843 36.3875 171.077 36.5535 171.279 36.7628C171.48 36.9738 171.648 37.2166 171.781 37.49C171.914 37.7638 172.014 38.0572 172.08 38.3659C172.144 38.6768 172.178 38.9919 172.178 39.3106C172.178 39.7621 172.121 40.1865 172.01 40.5815C171.898 40.9765 171.734 41.324 171.519 41.6252C171.302 41.9265 171.038 42.163 170.723 42.3352C170.409 42.5049 170.049 42.5915 169.644 42.5955C169.319 42.593 169.024 42.5368 168.759 42.4249C168.492 42.3115 168.258 42.1549 168.053 41.954C167.847 41.7524 167.675 41.5159 167.536 41.248C167.395 40.9781 167.29 40.6849 167.218 40.3684C167.147 40.0518 167.11 39.7228 167.11 39.3809C167.11 39.035 167.143 38.6987 167.212 38.3756C167.278 38.0531 167.38 37.7522 167.516 37.4747C167.652 37.1988 167.822 36.9563 168.025 36.7475C168.228 36.54 168.467 36.3778 168.739 36.2619C169.011 36.145 169.315 36.0863 169.655 36.0841ZM173.949 35.3919L176.741 39.029C176.434 39.0678 176.17 39.1418 175.945 39.2537C175.722 39.3653 175.529 39.5075 175.367 39.6837C175.206 39.8599 175.065 40.065 174.944 40.2975C174.825 40.5306 174.715 40.7887 174.618 41.0702C174.534 41.3165 174.452 41.5649 174.372 41.8152C174.293 42.0652 174.209 42.314 174.121 42.5621C174.033 42.8102 173.932 43.0564 173.82 43.2989H174.864C174.95 43.1211 175.028 42.9236 175.103 42.7083C175.175 42.4933 175.246 42.278 175.312 42.0593C175.378 41.8405 175.443 41.6349 175.509 41.4456C175.601 41.1737 175.701 40.9315 175.806 40.7121C175.914 40.4949 176.041 40.3096 176.19 40.1553C176.338 40.0006 176.522 39.8812 176.741 39.799C176.958 39.7171 177.224 39.674 177.539 39.674H177.903V43.2989H178.888V39.674H179.24C179.555 39.674 179.82 39.7171 180.039 39.799C180.256 39.8812 180.44 40.0006 180.589 40.1553C180.738 40.3096 180.864 40.4949 180.972 40.7121C181.077 40.9315 181.178 41.1737 181.269 41.4456C181.332 41.6349 181.395 41.8405 181.461 42.0593C181.525 42.278 181.595 42.4933 181.668 42.7083C181.742 42.9236 181.825 43.1211 181.914 43.2989H182.958C182.851 43.0564 182.753 42.8102 182.669 42.5621C182.585 42.314 182.503 42.0633 182.427 41.8111C182.35 41.559 182.269 41.3087 182.184 41.0581C182.087 40.7749 181.977 40.5168 181.856 40.2818C181.734 40.0478 181.592 39.8422 181.427 39.6643C181.263 39.4887 181.068 39.3459 180.841 39.2359C180.615 39.1287 180.346 39.0578 180.038 39.029L182.841 35.3919H181.657L179.205 38.8997H178.888V35.3919H177.903V38.8997H177.585L175.134 35.3919H173.949ZM183.979 35.3919V43.2989H185.07L187.545 39.3572C187.819 38.9216 188.081 38.4794 188.335 38.0319C188.589 37.5841 188.816 37.1425 189.011 36.706L189.046 36.7182C189.019 37.0485 189 37.3785 188.986 37.7088C188.972 38.0416 188.965 38.3894 188.959 38.7509C188.955 39.115 188.952 39.5075 188.952 39.9318V43.2989H189.915V35.3919H188.894L186.337 39.4628C186.05 39.9303 185.783 40.3815 185.539 40.8156C185.295 41.2481 185.076 41.6702 184.882 42.079L184.847 42.0674C184.87 41.7174 184.888 41.3634 184.902 41.0074C184.915 40.6515 184.925 40.2859 184.933 39.909C184.939 39.5312 184.941 39.1362 184.941 38.724V35.3919H183.979Z" fill="#1F1C21"/>
</svg>
