<svg width="11" height="17" viewBox="0 0 11 17" fill="none" xmlns="http://www.w3.org/2000/svg">
<path d="M5.5 0.0341797C2.4673 0.0341797 0 2.63456 0 5.83084C0 6.91076 0.283831 7.96466 0.820997 8.87898L5.18693 16.2941C5.27056 16.4362 5.4179 16.5225 5.57636 16.5225C5.57758 16.5225 5.57877 16.5225 5.57999 16.5225C5.73983 16.5211 5.88748 16.4322 5.96958 16.2876L10.2242 8.80066C10.7318 7.90566 11 6.87872 11 5.83084C11 2.63456 8.5327 0.0341797 5.5 0.0341797ZM9.43757 8.30466L5.56942 15.1115L1.6001 8.36997C1.15298 7.60893 0.910556 6.73093 0.910556 5.83084C0.910556 3.16728 2.97275 0.993849 5.5 0.993849C8.02725 0.993849 10.0864 3.16728 10.0864 5.83084C10.0864 6.70424 9.85994 7.55979 9.43757 8.30466Z" fill="white"/>
<path d="M5.50014 2.47754C3.8153 2.47754 2.44458 3.84746 2.44458 5.53131C2.44458 7.2044 3.793 8.58508 5.50014 8.58508C7.22832 8.58508 8.55569 7.18601 8.55569 5.53131C8.55569 3.84746 7.18497 2.47754 5.50014 2.47754ZM5.50014 7.57394C4.37104 7.57394 3.45631 6.65669 3.45631 5.53131C3.45631 4.40874 4.37691 3.48868 5.50014 3.48868C6.62336 3.48868 7.54057 4.40874 7.54057 5.53131C7.54057 6.64027 6.64712 7.57394 5.50014 7.57394Z" fill="white"/>
</svg>
