<svg width="15" height="16" viewBox="0 0 15 16" fill="none" xmlns="http://www.w3.org/2000/svg">
<path d="M14.6144 11.7225L12.7496 9.75414C12.2355 9.21149 11.3989 9.21149 10.8848 9.75414L10.0372 10.6489C9.64769 11.06 9.01392 11.0599 8.62457 10.649L4.95058 6.76761C4.56018 6.35552 4.56012 5.68855 4.95058 5.2764C5.08711 5.13229 5.47915 4.71847 5.79821 4.38169C6.31008 3.84141 6.31722 2.96111 5.79771 2.4128L3.93341 0.451114C3.41928 -0.0915403 2.58273 -0.0915403 2.06999 0.449692C1.6863 0.85117 1.56254 0.980687 1.3905 1.16071C-0.463486 3.11766 -0.463486 6.30187 1.39041 8.25876L7.21173 14.4067C9.07005 16.3683 12.0778 16.3684 13.9363 14.4067L14.6144 13.6909C15.1285 13.1482 15.1285 12.2652 14.6144 11.7225ZM2.69023 1.10724C2.86159 0.926351 3.14039 0.92632 3.31232 1.10773L5.17662 3.06941C5.34839 3.25073 5.34839 3.54419 5.17662 3.72554L4.86579 4.0536L2.38101 1.43078L2.69023 1.10724ZM7.83343 13.7507L2.01209 7.60267C0.577712 6.0886 0.498871 3.71119 1.76962 2.0977L4.24719 4.7129C3.59619 5.49189 3.62332 6.67892 4.32884 7.42364L8.00272 11.3049C8.00275 11.3049 8.00281 11.3049 8.00284 11.305C8.7076 12.0489 9.8321 12.0794 10.571 11.3913L13.0486 14.0066C11.5249 15.3456 9.27769 15.2751 7.83343 13.7507ZM13.9928 13.0348L13.682 13.3629L11.1956 10.7383L11.5064 10.4103C11.6778 10.2294 11.9566 10.2293 12.128 10.4103L13.9928 12.3787C14.1642 12.5596 14.1642 12.8539 13.9928 13.0348Z" fill="white"/>
</svg>
