<svg width="22" height="29" viewBox="0 0 22 29" fill="none" xmlns="http://www.w3.org/2000/svg">
<path d="M10.5941 15.3082C10.6201 15.3082 10.6461 15.3082 10.6773 15.3082C10.6877 15.3082 10.6981 15.3082 10.7085 15.3082C10.7242 15.3082 10.745 15.3082 10.7606 15.3082C12.2849 15.2796 13.5179 14.6896 14.4283 13.5612C16.4313 11.0753 16.0983 6.81381 16.0619 6.40713C15.9319 3.35418 14.6208 1.89357 13.5387 1.21196C12.7323 0.702176 11.7907 0.427239 10.7398 0.404327H10.7033C10.6981 0.404327 10.6877 0.404327 10.6825 0.404327H10.6513C10.0738 0.404327 8.9397 0.507429 7.85237 1.18904C6.75985 1.87066 5.42801 3.33127 5.29795 6.40713C5.26153 6.81381 4.92857 11.0753 6.93153 13.5612C7.83677 14.6896 9.06976 15.2796 10.5941 15.3082ZM6.68701 6.55033C6.68701 6.53314 6.69222 6.51596 6.69222 6.5045C6.8639 2.39762 9.51197 1.95658 10.6461 1.95658H10.6669C10.6773 1.95658 10.6929 1.95658 10.7085 1.95658C12.1132 1.99095 14.5012 2.62101 14.6624 6.5045C14.6624 6.52169 14.6624 6.53887 14.6676 6.55033C14.6728 6.59042 15.037 10.4854 13.3826 12.5359C12.7271 13.3493 11.8531 13.7502 10.7033 13.7617C10.6929 13.7617 10.6877 13.7617 10.6773 13.7617C10.6669 13.7617 10.6617 13.7617 10.6513 13.7617C9.50677 13.7502 8.62755 13.3493 7.97723 12.5359C6.32804 10.4968 6.68181 6.58469 6.68701 6.55033Z" fill="white"/>
<path d="M21.3682 22.3764C21.3682 22.3707 21.3682 22.365 21.3682 22.3592C21.3682 22.3134 21.363 22.2676 21.363 22.216C21.3318 21.0819 21.2641 18.4299 19.0062 17.5822C18.9906 17.5765 18.9698 17.5707 18.9542 17.565C16.6079 16.9063 14.6569 15.4171 14.6361 15.3999C14.3188 15.1536 13.8817 15.2395 13.658 15.5889C13.4343 15.9383 13.5124 16.4194 13.8297 16.6657C13.9182 16.7345 15.9888 18.3211 18.5796 19.0543C19.7918 19.5297 19.9271 20.9559 19.9635 22.2619C19.9635 22.3134 19.9635 22.3592 19.9687 22.4051C19.9739 22.9206 19.9427 23.7167 19.8594 24.175C19.0166 24.7019 15.713 26.5234 10.6874 26.5234C5.68257 26.5234 2.35816 24.6962 1.51015 24.1692C1.42691 23.711 1.39049 22.9148 1.40089 22.3993C1.40089 22.3535 1.4061 22.3077 1.4061 22.2561C1.44251 20.9502 1.57778 19.5239 2.78997 19.0485C5.38082 18.3154 7.45143 16.723 7.53987 16.66C7.85722 16.4137 7.93526 15.9326 7.71155 15.5832C7.48784 15.2338 7.05083 15.1479 6.73348 15.3941C6.71267 15.4113 4.77213 16.9006 2.41539 17.5593C2.39458 17.565 2.37897 17.5707 2.36336 17.5765C0.105466 18.4299 0.0378337 21.0819 0.00661858 22.2103C0.00661858 22.2619 0.00661846 22.3077 0.00141594 22.3535C0.00141594 22.3592 0.00141594 22.365 0.00141594 22.3707C-0.00378658 22.6685 -0.00898901 24.1979 0.266745 24.9654C0.31877 25.1143 0.412415 25.2403 0.537276 25.3263C0.693352 25.4408 4.43396 28.0642 10.6926 28.0642C16.9512 28.0642 20.6918 25.4351 20.8479 25.3263C20.9676 25.2403 21.0664 25.1143 21.1185 24.9654C21.3786 24.2036 21.3734 22.6743 21.3682 22.3764Z" fill="white"/>
</svg>
