<svg width="74" height="79" viewBox="0 0 74 79" fill="none" xmlns="http://www.w3.org/2000/svg">
<path d="M22.3146 14.4916C21.6898 14.4916 21.1831 15.0366 21.1831 15.709C21.1831 17.1857 20.0664 18.3871 18.6939 18.3871C17.3214 18.3871 16.2047 17.1857 16.2047 15.709C16.2047 14.2323 17.3214 13.0309 18.6939 13.0309C19.3187 13.0309 19.8254 12.4859 19.8254 11.8135C19.8254 11.1411 19.3189 10.5961 18.6939 10.5961C16.0736 10.5961 13.9419 12.8898 13.9419 15.7088C13.9419 18.5279 16.0737 20.8215 18.6939 20.8215C21.3141 20.8215 23.4459 18.5279 23.4459 15.7088C23.4461 15.0366 22.9394 14.4916 22.3146 14.4916Z" fill="white"/>
<path d="M22.3146 28.7734C21.6898 28.7734 21.1831 29.3184 21.1831 29.9908C21.1831 31.4675 20.0664 32.6689 18.6939 32.6689C17.3214 32.6689 16.2047 31.4675 16.2047 29.9908C16.2047 28.5141 17.3214 27.3127 18.6939 27.3127C19.3187 27.3127 19.8254 26.7677 19.8254 26.0953C19.8254 25.4229 19.3189 24.8779 18.6939 24.8779C16.0736 24.8779 13.9419 27.1716 13.9419 29.9906C13.9419 32.8097 16.0737 35.1033 18.6939 35.1033C21.3141 35.1033 23.4459 32.8097 23.4459 29.9906C23.4461 29.3186 22.9394 28.7734 22.3146 28.7734Z" fill="white"/>
<path d="M40.6865 32.2342H32.2384C31.6136 32.2342 31.1069 32.7792 31.1069 33.4515C31.1069 34.1239 31.6135 34.6689 32.2384 34.6689H40.6865C41.3113 34.6689 41.818 34.1239 41.818 33.4515C41.818 32.7792 41.3115 32.2342 40.6865 32.2342Z" fill="white"/>
<path d="M40.6865 27.0406H32.2384C31.6136 27.0406 31.1069 27.5856 31.1069 28.258C31.1069 28.9304 31.6135 29.4753 32.2384 29.4753H40.6865C41.3113 29.4753 41.818 28.9304 41.818 28.258C41.818 27.5856 41.3115 27.0406 40.6865 27.0406Z" fill="white"/>
<path d="M38.2728 46.5159H32.2384C31.6136 46.5159 31.1069 47.0609 31.1069 47.7333C31.1069 48.4056 31.6135 48.9506 32.2384 48.9506H38.2728C38.8976 48.9506 39.4043 48.4056 39.4043 47.7333C39.4043 47.0609 38.8976 46.5159 38.2728 46.5159Z" fill="white"/>
<path d="M40.6865 41.3226H32.2384C31.6136 41.3226 31.1069 41.8676 31.1069 42.54C31.1069 43.2124 31.6135 43.7573 32.2384 43.7573H40.6865C41.3113 43.7573 41.818 43.2124 41.818 42.54C41.818 41.8676 41.3115 41.3226 40.6865 41.3226Z" fill="white"/>
<path d="M51.5483 17.9522H32.2384C31.6136 17.9522 31.1069 18.4972 31.1069 19.1696C31.1069 19.842 31.6135 20.387 32.2384 20.387H51.5482C52.173 20.387 52.6797 19.842 52.6797 19.1696C52.6797 18.4972 52.1732 17.9522 51.5483 17.9522Z" fill="white"/>
<path d="M46.7208 12.7587H32.2384C31.6136 12.7587 31.1069 13.3037 31.1069 13.976C31.1069 14.6484 31.6135 15.1934 32.2384 15.1934H46.7208C47.3456 15.1934 47.8523 14.6484 47.8523 13.976C47.8523 13.3037 47.3458 12.7587 46.7208 12.7587Z" fill="white"/>
<path d="M22.3146 43.0554C21.6898 43.0554 21.1831 43.6004 21.1831 44.2727C21.1831 45.7495 20.0664 46.9509 18.6939 46.9509C17.3214 46.9509 16.2047 45.7495 16.2047 44.2727C16.2047 42.796 17.3214 41.5946 18.6939 41.5946C19.3187 41.5946 19.8254 41.0496 19.8254 40.3772C19.8254 39.7048 19.3189 39.1599 18.6939 39.1599C16.0736 39.1599 13.9419 41.4535 13.9419 44.2726C13.9419 47.0916 16.0737 49.3853 18.6939 49.3853C21.3141 49.3853 23.4459 47.0916 23.4459 44.2726C23.4461 43.6004 22.9394 43.0554 22.3146 43.0554Z" fill="white"/>
<path d="M58.487 0.929016H4.65125C2.08667 0.929016 0 2.63988 0 4.74293V59.2737C0 61.3768 2.08648 63.0876 4.65125 63.0876H31.5692C32.389 63.0876 33.0537 62.5427 33.0537 61.8704C33.0537 61.1982 32.3891 60.6531 31.5692 60.6531H4.65125C3.72356 60.6531 2.96881 60.0343 2.96881 59.2736V4.74293C2.96881 3.98224 3.72356 3.36337 4.65125 3.36337H58.487C59.4147 3.36337 60.1694 3.98224 60.1694 4.74293V44.9921C60.1694 45.6643 60.834 46.2093 61.6539 46.2093C62.4737 46.2093 63.1384 45.6644 63.1384 44.9921V4.74293C63.1382 2.63988 61.0518 0.929016 58.487 0.929016Z" fill="white"/>
<path d="M70.2756 50.2892C69.224 50.1764 68.1729 50.4971 67.3411 51.1766C66.6785 49.9804 65.5485 49.1318 64.2412 48.9909C63.1893 48.8783 62.1384 49.1989 61.3067 49.8782C60.6441 48.6821 59.5142 47.8335 58.2068 47.6926C57.4038 47.6063 56.6019 47.7728 55.8972 48.1586V32.6575C55.8972 31.399 55.3995 30.1925 54.5314 29.3476C53.6641 28.5034 52.4954 28.0913 51.3247 28.2173C49.236 28.4423 47.6 30.474 47.6 32.8428V48.383L44.274 51.9611C42.5066 53.8625 41.7931 56.5603 42.3657 59.1779L44.8908 70.7229C45.9139 75.4011 49.7483 78.6682 54.2155 78.6682H64.4206C69.7027 78.6682 74.0001 74.0452 74.0001 68.3625V54.915C74.0003 52.546 72.3642 50.5143 70.2756 50.2892ZM71.7373 68.3622C71.7373 72.7024 68.4551 76.2334 64.4207 76.2334H54.2157C50.8037 76.2334 47.8749 73.738 47.0935 70.1649L44.5684 58.6199C44.1766 56.829 44.6648 54.983 45.8741 53.6821L47.6 51.8254V56.0278C47.6 56.7 48.1065 57.2451 48.7315 57.2451C49.3564 57.2451 49.8629 56.7001 49.8629 56.0278V32.8426C49.8629 31.7092 50.604 30.7414 51.5504 30.6397C52.0939 30.5809 52.6137 30.7634 53.0134 31.1527C53.4081 31.537 53.6345 32.0856 53.6345 32.6577V54.0805C53.6345 54.7527 54.141 55.2978 54.766 55.2978C55.3909 55.2978 55.8975 54.7529 55.8975 54.0805V52.133C55.8975 51.5609 56.1237 51.0123 56.5186 50.628C56.9186 50.2387 57.4381 50.056 57.9816 50.1149C58.9278 50.2168 59.669 51.1846 59.669 52.3181V55.3786C59.669 56.0507 60.1755 56.5958 60.8005 56.5958C61.4253 56.5958 61.932 56.0509 61.932 55.3786V53.431C61.932 52.8589 62.1582 52.3103 62.5531 51.926C62.9531 51.5367 63.4727 51.3542 64.0161 51.413C64.9623 51.5149 65.7035 52.4826 65.7035 53.6161V56.6767C65.7035 57.3489 66.21 57.894 66.835 57.894C67.4598 57.894 67.9665 57.3491 67.9665 56.6767V54.7292C67.9665 54.1571 68.1927 53.6085 68.5876 53.2242C68.9876 52.835 69.5068 52.6522 70.0506 52.7113C70.9968 52.813 71.738 53.7808 71.738 54.9143V68.3622H71.7373Z" fill="white"/>
</svg>
