<svg width="92" height="61" viewBox="0 0 92 61" fill="none" xmlns="http://www.w3.org/2000/svg">
<path d="M85.6998 26.362L83.3691 16.5378C84.0063 16.3951 84.4845 15.7994 84.4845 15.0857V13.5017C84.4845 10.0625 81.8293 7.26459 78.5659 7.26459H67.9501V3.9973C67.9501 2.30494 66.6437 0.928223 65.0377 0.928223H10.9248C9.31884 0.928223 8.01243 2.30494 8.01243 3.9973V30.9258C8.01243 31.7459 8.64331 32.4109 9.42167 32.4109C10.1999 32.4109 10.8309 31.7461 10.8309 30.9258V3.9973C10.8309 3.94265 10.8729 3.89838 10.9248 3.89838H65.0376C65.0894 3.89838 65.1314 3.94265 65.1314 3.9973V30.9262C65.1314 31.7463 65.7623 32.4113 66.5407 32.4113C67.3189 32.4113 67.9499 31.7464 67.9499 30.9262V29.2427H84.5734C84.5748 29.2427 84.5759 29.2431 84.5771 29.2431C84.5785 29.2431 84.5797 29.2429 84.581 29.2429C86.6265 29.2444 88.3634 30.6593 88.96 32.6089H84.5781C83.8 32.6089 83.1689 33.2737 83.1689 34.094V37.262C83.1689 39.8278 85.1496 41.9151 87.5844 41.9151H89.1815V48.4491H85.4968C84.2863 44.7659 80.9639 42.1129 77.0624 42.1129C73.161 42.1129 69.8383 44.7659 68.6281 48.4491H67.9496V37.2618C67.9496 36.4417 67.3187 35.7767 66.5403 35.7767C65.7621 35.7767 65.1311 36.4416 65.1311 37.2618V48.4487H35.8937C34.6832 44.7656 31.3608 42.1125 27.4593 42.1125C23.5579 42.1125 20.2352 44.7656 19.025 48.4487H10.9248C10.8729 48.4487 10.8309 48.4044 10.8309 48.3498V45.0827H16.9374C17.7156 45.0827 18.3466 44.4179 18.3466 43.5976C18.3466 42.7774 17.7158 42.1125 16.9374 42.1125H3.40924C2.63106 42.1125 2 42.7774 2 43.5976C2 44.4179 2.63088 45.0827 3.40924 45.0827H8.01261V48.3498C8.01261 50.0422 9.31902 51.4189 10.925 51.4189H18.537C18.5367 51.4518 18.5345 51.4846 18.5345 51.5178C18.5345 56.7038 22.5383 60.9229 27.4593 60.9229C32.3803 60.9229 36.3841 56.7038 36.3841 51.5178C36.3841 51.4844 36.382 51.4518 36.3816 51.4189H68.1401C68.1398 51.4518 68.1376 51.4846 68.1376 51.5178C68.1376 56.7038 72.1414 60.9229 77.0624 60.9229C81.9834 60.9229 85.9872 56.7038 85.9872 51.5178C85.9872 51.4844 85.9851 51.4518 85.9847 51.4189H90.5908C91.3689 51.4189 92 50.754 92 49.9338V34.0936C92.0002 30.1828 89.262 26.9335 85.6998 26.362ZM67.9501 10.2346H78.5659C80.2754 10.2346 81.6662 11.7002 81.6662 13.5017V13.6006H67.9501V10.2346ZM67.9501 26.2727V16.5705H80.4719L82.7736 26.2727H67.9501ZM27.4593 57.9532C24.0922 57.9532 21.3528 55.0666 21.3528 51.5182C21.3528 47.9697 24.0922 45.0831 27.4593 45.0831C30.8264 45.0831 33.5658 47.9697 33.5658 51.5182C33.5658 55.0666 30.8264 57.9532 27.4593 57.9532ZM77.0628 57.9532C73.6957 57.9532 70.9563 55.0666 70.9563 51.5182C70.9563 47.9697 73.6957 45.0831 77.0628 45.0831C80.4299 45.0831 83.1693 47.9697 83.1693 51.5182C83.1693 55.0666 80.4299 57.9532 77.0628 57.9532ZM89.1819 38.9449H87.5847C86.7041 38.9449 85.9876 38.1899 85.9876 37.2618V35.5787H89.1817V38.9449H89.1819Z" fill="white"/>
<path d="M27.5 48.924C26.1214 48.924 25 50.0454 25 51.424C25 52.8025 26.1214 53.924 27.5 53.924C28.8786 53.924 30 52.8025 30 51.424C30 50.0454 28.8786 48.924 27.5 48.924Z" fill="white"/>
<path d="M77.1035 48.924C75.725 48.924 74.6035 50.0454 74.6035 51.424C74.6035 52.8025 75.725 53.924 77.1035 53.924C78.4821 53.924 79.6035 52.8025 79.6035 51.424C79.6035 50.0454 78.4821 48.924 77.1035 48.924Z" fill="white"/>
<path d="M34.4531 37.925H13.4092C12.6311 37.925 12 38.6038 12 39.4412C12 40.2786 12.6309 40.9574 13.4092 40.9574H34.4531C35.2313 40.9574 35.8624 40.2786 35.8624 39.4412C35.8624 38.6038 35.2315 37.925 34.4531 37.925Z" fill="white"/>
<path d="M19.4469 33.9253H1.40924C0.631056 33.9253 0 34.6041 0 35.4415C0 36.2789 0.63088 36.9577 1.40924 36.9577H19.4469C20.2251 36.9577 20.8561 36.2789 20.8561 35.4415C20.8561 34.6041 20.2251 33.9253 19.4469 33.9253Z" fill="white"/>
<path d="M51.0027 15.9259C50.4525 15.334 49.5601 15.334 49.0099 15.9261L36.4781 29.4078L29.9588 22.3943C29.4085 21.8022 28.5162 21.8022 27.966 22.3943C27.4156 22.9864 27.4156 23.9461 27.966 24.5382L35.4817 32.6237C35.7568 32.9199 36.1175 33.0677 36.4781 33.0677C36.8386 33.0677 37.1995 32.9199 37.4744 32.6237L51.0025 18.07C51.5529 17.4777 51.5529 16.518 51.0027 15.9259Z" fill="white"/>
</svg>
