<svg width="64" height="65" viewBox="0 0 64 65" fill="none" xmlns="http://www.w3.org/2000/svg">
<path d="M63.2242 36.1182C62.8667 34.8392 62.53 33.6302 62.53 32.527C62.53 31.4238 62.8667 30.2148 63.2242 28.9357C63.7932 26.8997 64.3803 24.7936 63.6777 22.7465C62.9487 20.6171 61.1318 19.2254 59.3748 17.8817C58.3216 17.0753 57.3269 16.3142 56.6814 15.4761C56.0248 14.6216 55.5601 13.4813 55.0704 12.2737C54.2621 10.2898 53.4274 8.23729 51.5576 6.94862C49.7185 5.67918 47.423 5.55691 45.2068 5.44013C43.824 5.36732 42.5162 5.29725 41.4214 4.96066C40.3975 4.64605 39.3374 3.99347 38.2161 3.30242C36.4117 2.1896 34.3652 0.928406 31.9988 0.928406C29.6324 0.928406 27.5859 2.1896 25.7816 3.30379C24.6602 3.99484 23.6029 4.64879 22.5776 4.96203C21.4814 5.29863 20.1736 5.36869 18.7908 5.44151C16.5732 5.55966 14.2805 5.68056 12.44 6.94999C10.5702 8.23867 9.7355 10.2898 8.92722 12.2737C8.43473 13.4813 7.97008 14.623 7.31343 15.4775C6.66792 16.3183 5.67321 17.0794 4.62008 17.8872C2.86439 19.2322 1.05027 20.6212 0.321281 22.7479C-0.381273 24.7963 0.205812 26.9011 0.77342 28.9385C1.13096 30.2175 1.46763 31.4251 1.46763 32.5284C1.46763 33.6316 1.13096 34.8405 0.77342 36.1196C0.205812 38.1556 -0.381273 40.2618 0.321281 42.3115C1.05027 44.4383 2.86578 45.83 4.62147 47.1736C5.6746 47.9787 6.66931 48.7412 7.31343 49.5792C7.97147 50.4338 8.43613 51.574 8.92722 52.783C9.7355 54.7669 10.5716 56.8194 12.4428 58.1108C14.2805 59.3775 16.5746 59.4984 18.7908 59.6152C20.1736 59.688 21.4814 59.7581 22.5762 60.0947C23.6002 60.4093 24.6589 61.0619 25.7788 61.7515C27.5845 62.863 29.631 64.1255 31.9988 64.1255C34.3666 64.1255 36.4145 62.863 38.2216 61.7502C39.3415 61.0605 40.3988 60.4079 41.4242 60.0933C42.519 59.7567 43.8268 59.6866 45.2096 59.6138C47.4272 59.497 49.7199 59.3761 51.5576 58.1095C53.4316 56.818 54.2663 54.7628 55.0746 52.7775C55.5657 51.5713 56.0289 50.431 56.6828 49.5792C57.3283 48.7412 58.323 47.9787 59.3761 47.1736C61.1332 45.8286 62.9487 44.4383 63.6791 42.3102C64.3817 40.2604 63.7932 38.1556 63.2242 36.1182ZM61.0426 41.4295C60.5821 42.7732 59.1673 43.8558 57.6704 45.0015C56.5226 45.8808 55.3345 46.7903 54.4664 47.9169C53.5858 49.0654 53.0293 50.431 52.4909 51.754C51.8051 53.4411 51.1568 55.0334 49.9645 55.855C48.7765 56.6738 46.9721 56.7686 45.0606 56.8689C43.5678 56.9472 42.0222 57.0282 40.5948 57.4679C39.2301 57.8896 37.9669 58.6659 36.7468 59.4187C35.1121 60.4271 33.5693 61.3778 31.9986 61.3778C30.428 61.3778 28.8865 60.4271 27.2519 59.4187C26.0332 58.6672 24.7714 57.8896 23.4052 57.4679C21.9778 57.0296 20.4322 56.9472 18.9395 56.8689C17.028 56.7686 15.2222 56.6724 14.0355 55.855C12.8447 55.0334 12.195 53.4411 11.5091 51.7554C10.9707 50.4324 10.4128 49.0654 9.53082 47.9169C8.66411 46.7903 7.47603 45.8808 6.3269 45.0002C4.83136 43.8544 3.41791 42.7732 2.95742 41.4295C2.52754 40.178 2.97968 38.5596 3.45686 36.8477C3.8464 35.4478 4.24984 34.0025 4.24984 32.5256C4.24984 31.0487 3.8464 29.6048 3.45686 28.2048C2.97829 26.493 2.52754 24.876 2.95742 23.6244C3.41791 22.2808 4.82997 21.1996 6.32551 20.0538C7.47464 19.1731 8.66411 18.2623 9.52943 17.1344C10.4142 15.9858 10.9707 14.6175 11.5105 13.2944C12.195 11.6087 12.8433 10.0178 14.0327 9.19899C15.2208 8.3788 17.028 8.284 18.9409 8.18371C20.4322 8.10403 21.9778 8.02297 23.4038 7.58334C24.7714 7.16294 26.0346 6.38397 27.256 5.6311C28.8879 4.62681 30.4294 3.67611 31.9986 3.67611C33.5679 3.67611 35.1107 4.62681 36.744 5.63385C37.9655 6.38809 39.2273 7.16569 40.5948 7.58609C42.0208 8.02435 43.565 8.1054 45.0578 8.18509C46.9707 8.28538 48.7765 8.38292 49.9645 9.20174C51.1554 10.0233 51.8037 11.6142 52.4882 13.2972C53.0279 14.6216 53.583 15.9886 54.4678 17.1371C55.3345 18.2637 56.5226 19.1731 57.6704 20.0524C59.1673 21.1996 60.5821 22.2822 61.0426 23.6285C61.4725 24.8774 61.019 26.4944 60.5418 28.2062C60.1509 29.6062 59.7474 31.0515 59.7474 32.5284C59.7474 34.0052 60.1495 35.4505 60.5418 36.8491C61.0205 38.5609 61.4725 40.178 61.0426 41.4295Z" fill="white"/>
<path d="M31.9988 11.9183C20.4922 11.9183 11.1309 21.163 11.1309 32.5261C11.1309 43.8893 20.4922 53.1339 31.9988 53.1339C43.5054 53.1339 52.8667 43.8893 52.8667 32.5261C52.8667 21.163 43.5054 11.9183 31.9988 11.9183ZM31.9988 50.3862C22.0267 50.3862 13.9133 42.3739 13.9133 32.5261C13.9133 22.6783 22.0267 14.666 31.9988 14.666C37.142 14.666 41.7789 16.8079 45.076 20.2233L31.8179 38.648L24.6352 31.5548C24.0912 31.0176 23.212 31.0176 22.668 31.5548C22.1241 32.092 22.1241 32.9603 22.668 33.4974L31.0152 41.7406C31.2768 42.0002 31.6315 42.1431 31.9988 42.1431C32.0364 42.1431 32.0767 42.1417 32.1157 42.1376C32.5233 42.1046 32.8961 41.8944 33.1326 41.5647L46.9013 22.4297C48.9046 25.3038 50.0843 28.7796 50.0843 32.5261C50.0843 42.3739 41.9709 50.3862 31.9988 50.3862Z" fill="white"/>
</svg>
