<svg width="67" height="67" viewBox="0 0 67 67" fill="none" xmlns="http://www.w3.org/2000/svg">
<path d="M66.1878 37.621C65.8135 36.2873 65.4611 35.0267 65.4611 33.8764C65.4611 32.7261 65.8135 31.4655 66.1878 30.1318C66.7835 28.0088 67.3981 25.8128 66.6626 23.6783C65.8995 21.4579 63.9974 20.0068 62.158 18.6058C61.0555 17.7649 60.0141 16.9712 59.3383 16.0974C58.6509 15.2064 58.1645 14.0174 57.6518 12.7582C56.8056 10.6897 55.9318 8.54947 53.9744 7.20576C52.049 5.88212 49.6459 5.75462 47.3259 5.63286C45.8782 5.55694 44.5092 5.48388 43.363 5.13291C42.2911 4.80486 41.1813 4.12442 40.0074 3.40386C38.1185 2.24352 35.9761 0.928467 33.4988 0.928467C31.0214 0.928467 28.879 2.24352 26.9901 3.40529C25.8162 4.12585 24.7093 4.80773 23.636 5.13434C22.4883 5.48531 21.1193 5.55837 19.6716 5.63429C17.3501 5.75749 14.9499 5.88355 13.0231 7.2072C11.0657 8.5509 10.1919 10.6897 9.34568 12.7582C8.83011 14.0174 8.34367 15.2078 7.65625 16.0988C6.98047 16.9755 5.93914 17.7692 4.83664 18.6115C2.99866 20.0139 1.0995 21.4622 0.336341 23.6797C-0.399145 25.8156 0.215459 28.0102 0.809674 30.1347C1.18397 31.4683 1.53642 32.7275 1.53642 33.8778C1.53642 35.0281 1.18397 36.2888 0.809674 37.6224C0.215459 39.7454 -0.399145 41.9415 0.336341 44.0788C1.0995 46.2963 3.00011 47.7475 4.8381 49.1485C5.9406 49.9879 6.98193 50.783 7.65625 51.6568C8.34513 52.5479 8.83157 53.7368 9.34568 54.9975C10.1919 57.066 11.0672 59.2062 13.026 60.5528C14.9499 61.8736 17.3516 61.9996 19.6716 62.1214C21.1193 62.1973 22.4883 62.2704 23.6345 62.6213C24.7064 62.9494 25.8147 63.6298 26.9872 64.3489C28.8776 65.5079 31.0199 66.8243 33.4988 66.8243C35.9776 66.8243 38.1214 65.5079 40.0133 64.3475C41.1857 63.6284 42.2925 62.9479 43.3659 62.6199C44.5121 62.2689 45.8811 62.1959 47.3288 62.1199C49.6503 61.9982 52.0505 61.8721 53.9744 60.5513C55.9362 59.2048 56.81 57.0617 57.6562 54.9917C58.1703 53.734 58.6553 52.545 59.3398 51.6568C60.0156 50.783 61.0569 49.9879 62.1594 49.1485C63.9988 47.7461 65.8995 46.2963 66.6641 44.0774C67.3996 41.94 66.7835 39.7454 66.1878 37.621ZM63.904 43.1591C63.4219 44.5601 61.9408 45.6889 60.3737 46.8837C59.1721 47.8005 57.9284 48.7488 57.0196 49.9235C56.0977 51.1211 55.5151 52.545 54.9515 53.9245C54.2334 55.6836 53.5548 57.3439 52.3066 58.2006C51.0629 59.0544 49.1739 59.1532 47.1728 59.2578C45.6101 59.3394 43.992 59.4239 42.4977 59.8824C41.069 60.3221 39.7466 61.1315 38.4693 61.9165C36.758 62.968 35.1429 63.9593 33.4986 63.9593C31.8543 63.9593 30.2406 62.968 28.5293 61.9165C27.2535 61.1329 25.9325 60.3221 24.5023 59.8824C23.0081 59.4254 21.39 59.3394 19.8273 59.2578C17.8262 59.1532 15.9357 59.0529 14.6934 58.2006C13.4467 57.3439 12.7666 55.6836 12.0486 53.9259C11.485 52.5464 10.9009 51.1211 9.97758 49.9235C9.07024 48.7488 7.82647 47.8005 6.62347 46.8822C5.05783 45.6875 3.57812 44.5601 3.09605 43.1591C2.64602 41.8541 3.11935 40.1666 3.6189 38.3817C4.0267 36.9219 4.44906 35.4149 4.44906 33.875C4.44906 32.335 4.0267 30.8294 3.6189 29.3697C3.1179 27.5848 2.64602 25.8987 3.09605 24.5937C3.57812 23.1927 5.05638 22.0653 6.62202 20.8706C7.82501 19.9523 9.07024 19.0026 9.97612 17.8265C10.9024 16.6289 11.485 15.2021 12.05 13.8226C12.7666 12.0649 13.4453 10.406 14.6905 9.55223C15.9343 8.69702 17.8262 8.59817 19.8287 8.4936C21.39 8.41051 23.0081 8.32599 24.5009 7.86759C25.9325 7.42924 27.2549 6.617 28.5337 5.83198C30.242 4.78481 31.8557 3.7935 33.4986 3.7935C35.1414 3.7935 36.7566 4.78481 38.4664 5.83484C39.7451 6.6213 41.0661 7.4321 42.4977 7.87045C43.9905 8.32743 45.6071 8.41195 47.1699 8.49503C49.1724 8.59961 51.0629 8.70131 52.3066 9.5551C53.5533 10.4117 54.232 12.0706 54.9485 13.8254C55.5136 15.2064 56.0947 16.6317 57.021 17.8293C57.9284 19.004 59.1721 19.9523 60.3737 20.8691C61.9408 22.0653 63.4219 23.1941 63.904 24.598C64.354 25.9001 63.8792 27.5862 63.3797 29.3711C62.9704 30.8309 62.5481 32.3379 62.5481 33.8778C62.5481 35.4178 62.969 36.9248 63.3797 38.3831C63.8809 40.168 64.354 41.8541 63.904 43.1591Z" fill="white"/>
<path d="M33.5012 10.9357C20.6182 10.9357 10.1748 21.2083 10.1748 33.8794C10.1748 46.5511 20.6182 56.8231 33.5012 56.8231C46.3837 56.8231 56.8276 46.5511 56.8276 33.8794C56.8135 21.2137 46.3783 10.9496 33.5012 10.9357ZM33.5012 54.638C21.8451 54.638 12.3964 45.3443 12.3964 33.8794C12.3964 22.415 21.8451 13.1208 33.5012 13.1208C45.1568 13.1208 54.6061 22.415 54.6061 33.8794C54.5931 45.339 45.1514 54.6257 33.5012 54.638Z" fill="white"/>
<path d="M22.7183 42.9399L42.7123 23.2739L44.2836 24.8188L24.289 44.4854L22.7183 42.9399Z" fill="white"/>
<path d="M40.1658 36.0646C37.7115 36.0646 35.7227 38.0215 35.7227 40.4352C35.7227 42.8494 37.7115 44.8058 40.1658 44.8058C42.6195 44.8058 44.6089 42.8494 44.6089 40.4352C44.6089 38.0215 42.6195 36.0646 40.1658 36.0646ZM40.1658 42.6205C38.9389 42.6205 37.9442 41.642 37.9442 40.4352C37.9442 39.2284 38.9389 38.2499 40.1658 38.2499C41.3927 38.2499 42.3874 39.2284 42.3874 40.4352C42.3874 41.642 41.3927 42.6205 40.1658 42.6205Z" fill="white"/>
<path d="M26.8367 31.695C29.2904 31.695 31.2798 29.7386 31.2798 27.3244C31.2798 24.9108 29.2904 22.9538 26.8367 22.9538C24.3824 22.9538 22.3936 24.9108 22.3936 27.3244C22.3936 29.7386 24.3824 31.695 26.8367 31.695ZM26.8367 25.1391C28.0636 25.1391 29.0583 26.1176 29.0583 27.3244C29.0583 28.5312 28.0636 29.5097 26.8367 29.5097C25.6098 29.5097 24.6151 28.5312 24.6151 27.3244C24.6151 26.1176 25.6098 25.1391 26.8367 25.1391Z" fill="white"/>
</svg>
