<svg width="19" height="19" viewBox="0 0 19 19" fill="none" xmlns="http://www.w3.org/2000/svg">
<path d="M4.14005 4.71931H16.6916C17.3507 4.71931 17.8296 5.34582 17.6565 5.98182L16.9778 8.47659C16.6225 9.78268 15.4366 10.6891 14.0831 10.6891H5.24054M0 1.29785H2.00252C2.97824 1.29785 3.81154 2.00191 3.97445 2.96393L5.47496 11.8251C5.63787 12.7871 6.47118 13.4912 7.44689 13.4912H16.3759" stroke="white" stroke-width="1.5"/>
<path d="M8.84162 16.9958C8.84162 17.4863 8.42852 17.9159 7.87906 17.9159C7.3296 17.9159 6.9165 17.4863 6.9165 16.9958C6.9165 16.5053 7.3296 16.0757 7.87906 16.0757C8.42852 16.0757 8.84162 16.5053 8.84162 16.9958Z" stroke="white" stroke-width="1.5"/>
<path d="M16.3768 16.9958C16.3768 17.4863 15.9637 17.9159 15.4142 17.9159C14.8648 17.9159 14.4517 17.4863 14.4517 16.9958C14.4517 16.5053 14.8648 16.0757 15.4142 16.0757C15.9637 16.0757 16.3768 16.5053 16.3768 16.9958Z" stroke="white" stroke-width="1.5"/>
</svg>
